<svg xmlns="http://www.w3.org/2000/svg" width="100" height="100" viewBox="0 0 100 100">
  <path d="M71.502,46.132 L69.577,46.132 L69.577,30.479 C69.479,11.285 56.387,0.836 40.476,0.836 C24.57,0.836 10.304,11.782 10.801,30.479 L10.785,46.112 C10.785,46.112 11.025,46.133 9.825,46.133 C8.555,46.133 0.185,47.606 0.185,55.069 L0.185,90.893 C0.185,98.852 9.605,100.836 9.825,100.836 L71.027,100.836 C71.247,100.836 80.181,99.843 80.181,90.893 L80.181,55.564 C80.182,47.109 71.727,46.132 71.502,46.132 L71.502,46.132 Z M49.334,87.055 L31.061,87.055 L36.024,72.489 C33.904,71.077 32.496,68.623 32.496,65.824 C32.496,61.44 35.938,57.886 40.183,57.886 C44.428,57.886 47.87,61.443 47.87,65.824 C47.87,68.619 46.466,71.077 44.348,72.485 L49.334,87.055 L49.334,87.055 Z M24.261,46.132 L24.277,30.686 C24.277,20.737 30.348,12.783 40.183,12.783 C49.924,12.783 56.088,19.741 56.088,30.686 L56.098,46.132 L24.261,46.132 L24.261,46.132 Z" transform="translate(10)"/>
</svg>
