<svg xmlns="http://www.w3.org/2000/svg" width="100" height="100" viewBox="0 0 100 100">
  <path d="M81.4652405,45.4794356 L79.539072,45.4794356 L79.539072,29.8295576 C79.4410634,10.6342542 66.3489178,0.183 50.4365255,0.183 C34.5291336,0.183 20.2658856,11.1293136 20.761929,29.8295576 L20.7459276,45.4594332 C20.7459276,45.4594332 20.9859486,45.4804357 19.7848435,45.4804357 C18.5147324,45.4804357 10.145,46.9516122 10.145,54.4135077 L10.145,90.2388067 C10.145,98.1987619 19.5658243,100.183 19.7848435,100.183 L80.990199,100.183 C81.2092181,100.183 90.145,99.1898808 90.145,90.2388067 L90.145,54.9075669 C90.1460001,46.4575529 81.6902602,45.4794356 81.4652405,45.4794356 L81.4652405,45.4794356 Z M34.236108,30.0365824 C34.236108,20.0863884 40.3066391,12.1324339 50.1434999,12.1324339 C59.8853523,12.1324339 66.0498917,19.0902689 66.0498917,30.0365824 L66.0598926,45.4794356 L34.2201066,45.4794356 L34.236108,30.0365824 L34.236108,30.0365824 Z M60.4077747,90.8838841 L49.4617224,79.937476 L39.2322044,90.3752722 L32.6384682,83.7669185 L43.5854206,72.8241111 L33.3460008,62.6014623 L39.7570029,56.1146353 L50.7048555,67.0583427 L61.1279097,56.7168678 L67.6415309,63.2316009 L56.6936783,74.1762086 L67.0141133,84.4879771 L60.4077747,90.8838841 Z"/>
</svg>
