<svg xmlns="http://www.w3.org/2000/svg" width="100" height="100" viewBox="0 0 100 100">
  <path d="M79.577,27.479 C79.577,11.833 66.387,0.836 50.476,0.836 C34.57,0.836 20.304,11.782 20.801,30.479 L20.785,46.112 C20.785,46.112 21.025,46.133 19.825,46.133 C18.555,46.133 10.185,47.606 10.185,55.069 L10.185,90.893 C10.185,98.852 19.605,100.836 19.825,100.836 L81.027,100.836 C81.247,100.836 90.181,99.843 90.181,90.893 L90.181,55.564 C90.181,47.107 81.726,46.13 81.5,46.13 L34.259,46.13 L34.275,30.684 C34.275,20.735 40.346,12.781 50.181,12.781 C59.922,12.781 66.664,19.164 66.664,30.164 L79.577,27.479 Z M59.334,87.055 L41.061,87.055 L46.024,72.49 C43.904,71.078 42.496,68.624 42.496,65.825 C42.496,61.44 45.938,57.887 50.183,57.887 C54.428,57.887 57.87,61.445 57.87,65.825 C57.87,68.62 56.466,71.078 54.348,72.485 L59.334,87.055 L59.334,87.055 Z"/>
</svg>
