<svg xmlns="http://www.w3.org/2000/svg" width="100" height="100" viewBox="0 0 100 100">
  <path d="M11.3899912,95.2253545 C1.90498785,95.2253571 -1.78424539,84.6466353 1.90498788,79.2764443 C2.27580589,78.2888073 37.4602104,7.4248374 37.5562983,7.21698534 C41.440414,-1.51687703 56.7806411,-1.95839286 60.7080641,7.21698534 C60.6728769,7.19524917 98.2148179,79.8687547 97.8494133,79.2642177 C101.239556,84.2404407 96.8416762,95.2253571 88.8134703,95.2253545 C88.8134703,95.2253545 11.3912636,95.2879401 11.3899912,95.2253545 Z M50.4534937,71.3388569 C47.1600168,71.3388569 44.1860058,74.046195 44.1860058,77.5061732 C44.1860058,80.9729198 47.0544306,83.6802579 50.4534937,83.6802579 C53.8525567,83.6802579 56.7196284,80.9729198 56.7196284,77.5061732 C56.7209815,74.046195 53.7469705,71.3388569 50.4534937,71.3388569 Z M50.2220163,26.5 C46.4885969,26.5 42.634701,28.2990258 42.9961307,30.9143334 L45.7982257,63.934287 L54.6471605,63.934287 L57.4479018,30.9143334 C57.8093315,28.2990258 53.9554356,26.5 50.2220163,26.5 Z" transform="translate(0 2)"/>
</svg>
