<svg xmlns="http://www.w3.org/2000/svg" width="100" height="100" viewBox="0 0 100 100">
  <path d="M50.0614036,95.2902674 C25.1700224,95.2902674 4.915625,75.0407401 4.915625,50.1451337 C4.915625,25.252107 25.1713122,5 50.0614036,5 C74.951495,5 95.2058924,25.252107 95.2058924,50.1451337 C95.2058924,75.0394503 74.9527849,95.2902674 50.0614036,95.2902674 Z M35.4453441,75.6701923 C39.7560595,78.1467253 44.7452417,79.569442 50.0620486,79.569442 C66.2949488,79.569442 79.5018352,66.3638454 79.5018352,50.1296554 C79.5018352,44.8115586 78.0778287,39.8223764 75.6000058,35.5116611 L35.4453441,75.6701923 Z M50.0620486,20.6911586 C33.8291483,20.6911586 20.6222619,33.8967551 20.6222619,50.1309452 C20.6222619,55.3523024 21.9959639,60.2563538 24.388656,64.512895 L64.4452882,24.4575526 C60.1874571,22.0635707 55.2846956,20.6911586 50.0620486,20.6911586 Z"/>
</svg>
