<svg xmlns="http://www.w3.org/2000/svg" width="100" height="100" viewBox="0 0 100 100">
  <path d="M90,0 L10,0 C4.478,0 0,4.47903018 0,10.0023005 L0,89.9976995 C0,95.5219701 4.478,100 10,100 L90,100 C95.523,100 100,95.5219701 100,89.9976995 L100,10.0023005 C100,4.47802995 95.523,0 90,0 L90,0 Z M81.015,83.0531022 C80.993,83.0591036 17.896,83.1021135 17.895,83.0531022 C14.215,83.0571031 11.855,75.2643108 14.581,71.3104014 C14.855,70.5832341 40.853,18.4082339 40.924,18.2551987 C43.794,11.8247197 55.129,11.4996449 58.031,18.2551987 C58.005,18.239195 85.745,71.7465017 85.475,71.3013993 C87.98,74.965242 85.14,83.0100923 81.015,83.0531022 Z M50.046,65.3460296 C47.613,65.3460296 45.416,67.3464897 45.416,69.9030777 C45.416,72.4646669 47.535,74.465127 50.046,74.465127 C52.557,74.465127 54.6750003,72.4646669 54.6750003,69.9030777 C54.676,67.3464897 52.479,65.3460296 50.046,65.3460296 Z M49.875,29.508787 C47.117,29.508787 44.27,30.9681227 44.537,33.0896106 L46.607,59.8747712 L53.144,59.8747712 L55.213,33.0896106 C55.48,30.9681227 52.633,29.508787 49.875,29.508787 Z"/>
</svg>
