<svg xmlns="http://www.w3.org/2000/svg" width="100" height="100" viewBox="0 0 100 100">
  <path d="M90.169,0.282 L10.169,0.282 C4.647,0.282 0.169,4.76094058 0.169,10.2841004 L0.169,90.2798996 C0.169,95.8020592 4.647,100.282 10.169,100.282 L90.169,100.282 C95.692,100.282 100.169,95.8020592 100.169,90.2798996 L100.169,10.2841004 C100.169,4.76094058 95.692,0.282 90.169,0.282 L90.169,0.282 Z M80.248,68.5353332 L70.43,78.358396 L52.17,60.0945606 L33.909,78.358396 L24.092,68.5353332 L42.352,50.2804997 L24.09,32.0236657 L33.908,22.2066042 L52.17,40.4644383 L70.432,22.205604 L80.25,32.0206651 L61.988,50.2804997 L80.248,68.5353332 L80.248,68.5353332 Z"/>
</svg>
