<svg xmlns="http://www.w3.org/2000/svg" width="100" height="100" viewBox="0 0 100 100">
  <path d="M47.8056524,94.5521596 C73.7630356,94.5521596 94.8056524,73.5095428 94.8056524,47.5521596 C94.8056524,21.5947764 73.7630356,0.5521596 47.8056524,0.5521596 C21.8482691,0.5521596 0.80565236,21.5947764 0.80565236,47.5521596 C0.80565236,73.5095428 21.8482691,94.5521596 47.8056524,94.5521596 Z M40.8344722,77.4349375 L40.8344722,65.0146143 L53.2547954,65.0146143 L53.2547954,77.4349375 L40.8344722,77.4349375 Z M66.568211,39.8646591 C65.8868812,41.583078 65.0459092,43.0524085 64.0405439,44.2716815 C63.0323278,45.4919237 61.9195842,46.5318919 60.6956612,47.3906167 C59.4726884,48.25128 58.3162332,49.1080664 57.2291463,49.9677605 C56.1411092,50.829393 55.1766046,51.8121774 54.3337322,52.9209598 C53.4889592,54.0307115 52.9606198,55.4147511 52.7430124,57.0779247 L52.7430124,60.237567 L41.7324566,60.237567 L41.7324566,56.4954263 C41.8958997,54.114064 42.3434678,52.1165111 43.0780117,50.5095519 C43.810655,48.9025928 44.6687315,47.5292145 45.6465395,46.3923248 C46.6262481,45.2564044 47.6582204,44.2716815 48.7453073,43.4400947 C49.8333445,42.6104463 50.8387098,41.7769211 51.7633038,40.9463035 C52.6878978,40.1147166 53.4357452,39.2007465 54.0068459,38.2024546 C54.5779466,37.2041628 54.8345143,35.9577517 54.7803501,34.4612832 C54.7803501,31.9112774 54.1693388,30.0261534 52.946366,28.804942 C51.7214928,27.5876075 50.0214941,26.9760325 47.8482706,26.9760325 C46.3801331,26.9760325 45.1162996,27.2677664 44.0548695,27.8492956 C42.9953399,28.4317941 42.1249101,29.2071664 41.4454808,30.177351 C40.764151,31.1475357 40.2633689,32.2844253 39.9364826,33.5860816 C39.6095963,34.8906456 39.4461532,36.2901926 39.4461532,37.7866612 L27.4587396,37.7866612 C27.5110034,34.7917856 28.0155865,32.0479368 28.9677378,29.5541455 C29.9179886,27.0593851 31.2502402,24.8970655 32.9635424,23.0691252 C34.6768445,21.2382773 36.7426897,19.8115922 39.1620282,18.7832547 C41.5823169,17.7568556 44.2886312,17.2441406 47.2781201,17.2441406 C51.1380388,17.2441406 54.3603392,17.785932 56.9431208,18.8666072 C59.5249522,19.9482516 61.6050512,21.2935226 63.1824675,22.9024202 C64.7598838,24.5103485 65.8868812,26.2423365 66.5672607,28.0993532 C67.2466901,29.9573391 67.5859375,31.6883579 67.5859375,33.2962862 C67.5878301,35.9567825 67.2476403,38.1481786 66.568211,39.8646591 Z" transform="translate(3 3)"/>
</svg>
