<svg xmlns="http://www.w3.org/2000/svg" width="92" height="89" viewBox="0 0 92 89">
  <path d="M0.32779102,16.9334098 C-0.26782599,15.5421709 0.42423666,11.2649627 1.61286403,9.5737297 C2.80409804,7.8824967 9.9241324,2.1118682 13.1928577,0.51888655 C16.4615829,-1.07147508 20.2333895,1.7136228 20.2333895,1.7136228 L26.2794886,9.5737297 C16.7665597,12.754453 7.3578963,24.889148 7.3578963,24.889148 C7.3578963,24.889148 0.92340802,18.3259588 0.32779102,16.9334098 Z M45.9071428,89.0040129 C25.6666323,89.0040129 9.2694224,72.3860653 9.2694224,51.910451 C9.2694224,32.4138456 24.1489541,16.4459175 43.0524936,14.9707712 L43.0524936,9.3341735 L36.7434569,9.3341735 L36.7434569,0.02828206 L54.3663327,0.02828206 L54.3663327,9.3341735 L48.7578636,9.3341735 L48.7578636,14.9707712 C67.6561652,16.4445909 82.5435537,32.412519 82.5435537,51.910451 C82.5435537,72.3847387 66.1397965,89.0040129 45.9071428,89.0040129 Z M46.65121,62.6933659 C52.7640739,62.6933659 57.7195292,57.7455263 57.7195292,51.6420567 C57.7195292,45.5385872 52.7640739,40.5907476 46.65121,40.5907476 C40.5383461,40.5907476 35.5828908,45.5385872 35.5828908,51.6420567 C35.5828908,57.7455263 40.5383461,62.6933659 46.65121,62.6933659 Z M91.4867761,16.9341425 C90.8913319,18.3252533 84.4534987,24.889148 84.4534987,24.889148 C84.4534987,24.889148 75.0423534,12.7542607 65.5334875,9.5751403 L71.5778324,1.7157573 C71.5778324,1.7157573 75.3498476,-1.07170386 78.6189274,0.5185113 C81.8867043,2.1152759 89.0098846,7.884063 90.1981671,9.5751403 C91.3877525,11.2635977 92.0796144,15.540412 91.4867761,16.9341425 Z"/>
</svg>
