<svg xmlns="http://www.w3.org/2000/svg" width="100" height="100" viewBox="0 0 100 100">
  <path d="M90,7.10542736e-15 L10,7.10542736e-15 C4.477,7.10542736e-15 0,4.47898538 0,10.0022005 L0,89.9977995 C0,95.5220148 4.477,100 10,100 L90,100 C95.523,100 100,95.5220148 100,89.9977995 L100,10.0022005 C100,4.47898538 95.523,7.10542736e-15 90,7.10542736e-15 Z M38.669,69.804357 C42.011,71.7247795 45.879,72.8280222 50.001,72.8280222 C62.586,72.8280222 72.825,62.5877693 72.825,49.9989998 C72.825,45.8750925 71.721,42.0062414 69.8,38.663506 L38.669,69.804357 Z M50.001,27.1709776 C37.416,27.1709776 27.177,37.4112305 27.177,50 C27.177,54.0488908 28.242,57.8517274 30.097,61.1524535 L61.152,30.0916202 C57.851,28.2352117 54.05,27.1709776 50.001,27.1709776 Z M50.001,85.0077017 C30.703,85.0077017 15,69.3052472 15,50 C15,30.6967533 30.704,14.9922983 50.001,14.9922983 C69.298,14.9922983 85.001,30.6967533 85.001,50 C85.001,69.3042469 69.299,85.0077017 50.001,85.0077017 L50.001,85.0077017 Z"/>
</svg>
