<svg xmlns="http://www.w3.org/2000/svg" width="100" height="100" viewBox="0 0 100 100">
  <path d="M89.9975009,0 L9.99650122,0 C4.4754336,0 0,4.47898538 0,10.0022005 L0,89.9977995 C0,95.5220148 4.4754336,100 9.99650122,100 L89.9975009,100 C95.5225671,100 100,95.5220148 100,89.9977995 L100,10.0022005 C100,4.47898538 95.5235668,0 89.9975009,0 L89.9975009,0 Z M14.9967511,29.6465222 C14.539911,28.5842885 15.0707252,25.3185701 15.9824062,24.027286 C16.8960864,22.7360019 22.357175,18.3300326 24.8642975,17.113765 C27.37142,15.8994979 30.2644075,18.0259657 30.2644075,18.0259657 L34.9017844,24.027286 C27.6053381,26.4558203 20.3888639,35.7208586 20.3888639,35.7208586 C20.3888639,35.7208586 15.4535912,30.7097561 14.9967511,29.6465222 L14.9967511,29.6465222 Z M49.9065327,83.5433795 C34.4549408,83.5433795 21.9373219,71.013623 21.9373219,55.5752265 C21.9373219,40.8749925 33.2963463,28.8353438 47.7272954,27.7230991 L47.7272954,23.4731641 L42.9109812,23.4731641 L42.9109812,16.4566205 L56.3642725,16.4566205 L56.3642725,23.4731641 L52.082771,23.4731641 L52.082771,27.7230991 C66.5097216,28.8343436 77.8747438,40.8739923 77.8747438,55.5752265 C77.8747438,71.0126228 65.3521268,83.5433795 49.9065327,83.5433795 L49.9065327,83.5433795 Z M85.0052482,29.6485227 C84.5484081,30.7107564 79.6091368,35.722859 79.6091368,35.722859 C79.6091368,35.722859 72.388664,26.4568205 65.0932174,24.0292864 L69.7305943,18.0279662 C69.7305943,18.0279662 72.6245814,15.8994979 75.1327036,17.113765 C77.6398261,18.3330333 83.1049133,22.7380024 84.0165942,24.0292864 C84.9292748,25.3185701 85.460089,28.5842885 85.0052482,29.6485227 L85.0052482,29.6485227 Z M49.4416954,64.2901438 C54.1118376,64.2901438 57.8977358,60.5079087 57.8977358,55.8422853 C57.8977358,51.1766619 54.1118376,47.3944268 49.4416954,47.3944268 C44.7715533,47.3944268 40.985655,51.1766619 40.985655,55.8422853 C40.985655,60.5079087 44.7715533,64.2901438 49.4416954,64.2901438 Z"/>
</svg>
