<svg xmlns="http://www.w3.org/2000/svg" width="100" height="100" viewBox="0 0 100 100">
  <path d="M90,0 L10,0 C4.477,0 0,4.47898538 0,10.0022005 L0,89.9977995 C0,95.5220148 4.477,100 10,100 L90,100 C95.523,100 100,95.5220148 100,89.9977995 L100,10.0022005 C100,4.47898538 95.523,0 90,0 L90,0 Z M56.359,80.1126248 L42.883,80.1126248 L42.883,66.8917162 L56.359,66.8917162 L56.359,80.1126248 L56.359,80.1126248 Z M70.222,40.717958 C69.505,42.4913481 68.62,44.0076817 67.562,45.2659585 C66.501,46.5252356 65.33,47.5984717 64.042,48.4846666 C62.755,49.372862 61.538,50.2570566 60.394,51.1442517 C59.249,52.0334474 58.234,53.0476705 57.347,54.1919222 C56.458,55.3371742 55.902,56.7654884 55.673,58.481866 L55.673,61.7425834 L44.086,61.7425834 L44.086,57.8807338 C44.258,55.4231931 44.729,53.3617396 45.502,51.7033747 C46.273,50.0450099 47.176,48.6276981 48.205,47.45444 C49.236,46.2821821 50.322,45.2659585 51.466,44.4077697 C52.611,43.5515813 53.669,42.6913921 54.642,41.8342035 C55.615,40.9760147 56.402,40.0328072 57.003,39.0025806 C57.604,37.9723539 57.874,36.6860709 57.817,35.1417312 C57.817,32.5101522 57.174,30.5647242 55.887,29.304447 C54.598,28.0481706 52.809,27.4170317 50.522,27.4170317 C48.977,27.4170317 47.647,27.718098 46.53,28.31823 C45.415,28.9193623 44.499,29.7195383 43.784,30.7207586 C43.067,31.7219788 42.54,32.895237 42.196,34.2385325 C41.852,35.5848287 41.68,37.0291464 41.68,38.5734862 L29.065,38.5734862 C29.12,35.4828062 29.651,32.6511833 30.653,30.0776171 C31.653,27.5030507 33.055,25.2715597 34.858,23.3851447 C36.661,21.4957291 38.835,20.0234051 41.381,18.9621717 C43.928,17.9029386 46.776,17.3738222 49.922,17.3738222 C53.984,17.3738222 57.375,17.9329452 60.093,19.0481906 C62.81,20.1644362 64.999,21.5527416 66.659,23.2131069 C68.319,24.8724719 69.505,26.6598652 70.221,28.5762868 C70.936,30.4937086 71.2930083,32.2801016 71.2930083,33.9394667 C71.295,36.6850707 70.937,38.9465682 70.222,40.717958 L70.222,40.717958 Z"/>
</svg>
