<svg xmlns="http://www.w3.org/2000/svg" width="100" height="100" viewBox="0 0 100 100">
  <path d="M34.214961,59.4153846 C34.6578855,58.1692308 34.0890176,56.7692308 32.9413761,56.2861538 C31.80081,55.8061538 30.5074138,56.4230769 30.0644893,57.6692308 C27.3673195,65.2492308 17.7984516,79.6507692 8.939961,84.9630769 C7.8644893,85.6107692 7.4739233,87.0815385 8.0668478,88.2507692 C8.4729799,89.0492308 9.2343006,89.5 10.0182629,89.5 C10.380527,89.5 10.7498667,89.4030769 11.0923195,89.2 C21.3475082,83.0492308 31.27581,67.6830769 34.214961,59.4153846 L34.214961,59.4153846 L34.214961,59.4153846 Z M42.2159044,64.0892308 C45.1465648,54.9215385 41.5069421,48.7230769 36.6036402,46.6476923 C31.6437346,44.5446154 24.7748667,46.3707692 21.7960931,53.8676923 C19.2630742,60.24 12.7225082,71.3646154 5.0824138,75.8953846 C4.0041119,76.5353846 3.6064704,78.0046154 4.1965648,79.1784615 C4.785244,80.3476923 6.1366591,80.7830769 7.2163761,80.1415385 C16.5135459,74.6230769 23.4913761,61.7969231 25.8814704,55.7861538 C27.7564704,51.0692308 31.9677912,49.8753846 34.9904327,51.1553846 C37.8220365,52.3523077 40.1031685,55.9630769 38.0144893,62.5015385 C34.7597723,72.6784615 22.6918478,86.4707692 14.8692063,91.1061538 C13.7894893,91.7446154 13.3918478,93.2138462 13.980527,94.3876923 C14.385244,95.1938462 15.1479799,95.6492308 15.9361874,95.6492308 C16.2942063,95.6492308 16.6593006,95.5553846 16.9989233,95.3538462 C25.6819421,90.2092308 38.5890176,75.4307692 42.2159044,64.0892308 L42.2159044,64.0892308 L42.2159044,64.0892308 Z M39.6319421,38.1907692 C36.2470365,36.76 32.5762817,36.3876923 29.0328855,37.1153846 C22.4385459,38.4661538 16.8701497,43.3830769 14.1319421,50.2676923 C11.2720365,57.4676923 7.0522251,62.6830769 1.5857157,65.7692308 C0.494678,66.3861538 0.0715648,67.8461538 0.6361874,69.0307692 C1.2050553,70.2138462 2.5437346,70.6753846 3.6361874,70.0630769 C10.035244,66.4492308 14.9413761,60.4323077 18.2159044,52.1846154 C20.3654327,46.7769231 24.7168478,42.92 29.8536402,41.8692308 C32.5932629,41.3092308 35.4135459,41.5923077 38.0173195,42.6969231 C44.4503384,45.4169231 49.6593006,53.7061538 45.8965648,65.4784615 C42.3064704,76.7061538 31.664961,89.4338462 23.0059987,96.2046154 C22.0083572,96.9846154 21.780527,98.4953846 22.499395,99.58 C22.9338289,100.236923 23.6144893,100.586154 24.3078855,100.586154 C24.7578855,100.586154 25.2121308,100.436923 25.605527,100.130769 C34.8319421,92.9184615 46.2078855,79.2430769 50.099395,67.0661538 C54.8328855,52.2692308 47.9909044,41.7246154 39.6319421,38.1907692 L39.6319421,38.1907692 L39.6319421,38.1907692 Z M42.6588289,29.7338462 C37.8291119,27.6892308 32.5833572,27.1584615 27.4876025,28.1984615 C18.1833572,30.1030769 10.9635459,35.76 7.1526968,44.1323077 L7.0465648,44.3646154 C5.7347723,47.2553846 4.3776968,50.2446154 2.114961,50.9969231 C0.9390176,51.3876923 0.2767534,52.74 0.6376025,54.0184615 C0.9956214,55.2953846 2.2451497,56.0138462 3.4140176,55.6246154 C7.5163761,54.26 9.4692063,49.9615385 11.0385459,46.5061538 L11.1432629,46.2753846 C14.3173195,39.3 20.414961,34.5676923 28.3126025,32.9523077 C32.580527,32.0753846 36.9871308,32.5230769 41.0470365,34.2415385 C51.4111874,38.6246154 59.1135459,51.7861538 53.7814704,68.4584615 C51.3475082,76.0676923 46.1286402,84.7061538 39.0843006,92.78 C38.2394893,93.7507692 38.2762817,95.2815385 39.1663761,96.2 C39.5965648,96.6446154 40.1484516,96.8630769 40.6989233,96.8630769 C41.2876025,96.8630769 41.8762817,96.6107692 42.3135459,96.1092308 C49.7838289,87.5430769 55.3479799,78.2892308 57.9843006,70.0446154 C64.2418478,50.4830769 55.0111874,34.9569231 42.6588289,29.7338462 L42.6588289,29.7338462 L42.6588289,29.7338462 Z M45.689961,21.2784615 C39.3998667,18.6123077 32.5635459,17.9261538 25.9437346,19.28 C16.2319421,21.2692308 8.1121308,27.2846154 2.4644893,36.6784615 C1.7909044,37.7969231 2.0795836,39.2953846 3.1097723,40.0276923 C4.139961,40.76 5.519678,40.4476923 6.1890176,39.3276923 C11.2295836,30.9446154 18.1522251,25.8 26.7659044,24.0369231 C32.580527,22.8461538 38.564961,23.4538462 44.0767534,25.7892308 C57.8215648,31.6015385 68.6597723,49.5784615 61.6677912,71.44 C60.6531685,74.6076923 59.2748667,77.8723077 57.5725082,81.14 C56.9668478,82.3015385 57.3418478,83.7784615 58.4116591,84.4384615 C58.7597723,84.6507692 59.1347723,84.7523077 59.5069421,84.7523077 C60.2824138,84.7523077 61.0338289,84.3107692 61.4456214,83.5261538 C63.2809987,80.0046154 64.769678,76.4753846 65.8720365,73.0307692 C73.7781685,48.3030769 61.3734516,27.9107692 45.689961,21.2784615 L45.689961,21.2784615 L45.689961,21.2784615 Z M50.7135459,13.4507692 C37.6706214,7.52 22.6904327,8.71384615 10.635244,16.6369231 C9.5838289,17.3292308 9.2470365,18.8153846 9.8838289,19.96 C10.5163761,21.1015385 11.880527,21.4676923 12.9390176,20.7784615 C23.7828855,13.6507692 37.2630742,12.5784615 48.9970365,17.9153846 C60.2003384,23.0107692 67.980527,33.14 70.9026968,46.4369231 C71.1460931,47.5476923 72.0588289,48.2938462 73.064961,48.2938462 C73.2361874,48.2938462 73.410244,48.2723077 73.5843006,48.2276923 C74.7800553,47.9169231 75.5159044,46.6123077 75.2314704,45.3123077 C71.969678,30.4738462 63.2611874,19.1584615 50.7135459,13.4507692 L50.7135459,13.4507692 L50.7135459,13.4507692 Z M23.639961,6.20461538 C50.7517534,1.18307692 63.60081,15.6230769 67.8673195,22.0646154 C68.3017534,22.7215385 68.9838289,23.0692308 69.67581,23.0692308 C70.12581,23.0692308 70.5800553,22.9215385 70.9734516,22.6138462 C71.9710931,21.8338462 72.1960931,20.3215385 71.4800553,19.2369231 C66.7239233,12.06 52.4597723,-4.04 22.8942063,1.43538462 C21.6814704,1.66 20.8692063,2.90923077 21.07581,4.22615385 C21.2809987,5.54461538 22.4343006,6.43230769 23.639961,6.20461538 L23.639961,6.20461538 L23.639961,6.20461538 Z" transform="translate(12 -1)"/>
</svg>
